<?xml version="1.0" encoding="utf-8"?>
<!-- Generator: Adobe Illustrator 18.1.1, SVG Export Plug-In . SVG Version: 6.00 Build 0)  -->
<svg version="1.1" id="Calque_1" xmlns="http://www.w3.org/2000/svg" xmlns:xlink="http://www.w3.org/1999/xlink" x="0px" y="0px"
	 viewBox="0 0 227.3 66.1" enable-background="new 0 0 227.3 66.1" xml:space="preserve">
<g>
	<g>
		<path fill="#767171" d="M0,13.8c4.3-0.9,8.7-1.3,13.3-1.3c10.4,0,15.5,5.1,15.5,15.3c0,11.3-5.2,16.9-15.6,16.9
			c-2.6,0-5.1-0.5-7.5-1.5v21H0V13.8z M5.7,38.2c2.2,1.1,4.7,1.7,7.5,1.7c6.7,0,10.1-4,10.1-12.1c0-7-3.3-10.5-10-10.5
			c-2.9,0-5.4,0.2-7.5,0.7V38.2z"/>
		<path fill="#767171" d="M36.5,44.8V12.5h3.8l1,4.1c2.8-2.7,5.8-4.1,9-4.1v4.7c-3,0-5.7,1.4-8.1,4.1v23.5H36.5z"/>
		<path fill="#767171" d="M55.7,34.8c0-6.6,4.4-9.9,13.1-9.9c3.2,0,6,0.2,8.4,0.6v-3c0-3.5-2.9-5.3-8.7-5.3c-3.3,0-6.7,0.5-10.2,1.5
			v-4.6c3.5-1,6.9-1.5,10.2-1.5c9.6,0,14.4,3.4,14.4,10.3v22H80l-2.3-2.3c-2.8,1.5-6.1,2.3-9.9,2.3C59.8,44.8,55.7,41.5,55.7,34.8z
			 M68.8,29.4c-4.9,0-7.4,1.7-7.4,5.2c0,3.7,2.2,5.5,6.5,5.5c3.9,0,7.1-0.8,9.4-2.5v-7.6C75,29.6,72.2,29.4,68.8,29.4z"/>
		<path fill="#767171" d="M152.5,30.3h-21.7c0,6.6,4.2,9.9,12.5,9.9c2.8,0,5.7-0.3,8.5-0.9v4.6c-2.8,0.6-6.3,0.9-10.4,0.9
			c-10.9,0-16.3-5.5-16.3-16.5c0-10.5,5.2-15.8,15.5-15.8C150.4,12.5,154.4,18.4,152.5,30.3z M130.8,25.6h16.5
			c0.3-5.7-2.3-8.5-7.7-8.5C134.1,17.1,131.1,19.9,130.8,25.6z"/>
		<path fill="#767171" d="M188.8,42.9c-3.9,1.3-8.7,1.9-14.5,1.9c-9.6,0-14.4-5.6-14.4-16.8c0-10.3,5.1-15.5,15.3-15.5
			c2.8,0,5.4,0.5,7.9,1.5V0.8h5.7V42.9z M183.1,19.1c-2.3-1.1-4.9-1.7-7.9-1.7c-6.5,0-9.7,3.5-9.7,10.4c0,8.2,3.2,12.3,9.7,12.3
			c3,0,5.6-0.4,7.9-1.2V19.1z"/>
		<path fill="#767171" d="M196.5,28.7c0-10.8,5.1-16.1,15.4-16.1c10.3,0,15.4,5.4,15.4,16.1c0,10.7-5.1,16.1-15.4,16.1
			C202,44.8,196.9,39.4,196.5,28.7z M211.8,40.2c6.5,0,9.7-3.9,9.7-11.7c0-7.6-3.2-11.4-9.7-11.4c-6.5,0-9.7,3.8-9.7,11.4
			C202.2,36.3,205.4,40.2,211.8,40.2z"/>
	</g>
</g>
<g>
	<polygon fill="#767171" points="94.9,12.5 88.3,12.5 100.4,28.7 88.3,44.8 94.9,44.8 103.7,33.1 112.5,44.8 119.1,44.8 	"/>
	<line fill="#767171" x1="103" y1="24.5" x2="106.3" y2="28.9"/>
	<polygon fill="#767171" points="118.3,12.9 111.7,12.9 105.5,21.2 108.8,25.6 	"/>
</g>
<circle fill="#D11D26" cx="103.9" cy="6.3" r="6.3"/>
</svg>
